<svg id="SAP_Cloud_Platform_Cockpit" data-name="SAP Cloud Platform Cockpit" xmlns="http://www.w3.org/2000/svg" viewBox="0 0 263.076 18.506"><defs><style>.cls-1,.cls-2{fill:#fff;}.cls-1{fill-rule:evenodd;}</style></defs><title>cloud-platform-cockpit</title><path class="cls-1" d="M39.443,10.028l-4.668,0v11.1L30.7,10.025H26.653L23.17,19.309c-.37-2.341-2.792-3.15-4.7-3.755-1.257-.4-2.592-1-2.58-1.655.011-.539.716-1.04,2.114-.964a7.628,7.628,0,0,1,3.417.92l1.622-2.824a12.627,12.627,0,0,0-5.289-1.252h-.01a6.425,6.425,0,0,0-4.67,1.705,3.944,3.944,0,0,0-1.117,2.724,3.657,3.657,0,0,0,1.6,3.259,10.952,10.952,0,0,0,3.175,1.452c1.3.4,2.354.75,2.342,1.5a1.1,1.1,0,0,1-.308.729,2.052,2.052,0,0,1-1.5.471,6.457,6.457,0,0,1-3.866-1.1L11.96,23.376a10.786,10.786,0,0,0,5.285,1.406l.243,0a6.372,6.372,0,0,0,4.017-1.347c.061-.048.115-.1.171-.147l-.468,1.25h4.241l.711-2.164a8.082,8.082,0,0,0,4.926.021l.686,2.143h6.917V20.054H40.2c3.648,0,5.8-1.857,5.8-4.969C46,11.619,43.9,10.028,39.443,10.028Zm-10.79,9.5a4.27,4.27,0,0,1-1.5-.261l1.48-4.669h.028l1.454,4.682A4.379,4.379,0,0,1,28.653,19.526Zm11.064-2.682H38.689V13.082h1.028c1.372,0,2.466.456,2.466,1.856,0,1.45-1.094,1.906-2.466,1.906" transform="translate(-11.959 -9.26)"/><path class="cls-2" d="M63.668,18.557l2.8.888a6.287,6.287,0,0,1-2.144,3.482,6.746,6.746,0,0,1-8.491-.811A7.454,7.454,0,0,1,54,16.789a7.825,7.825,0,0,1,1.846-5.552A6.328,6.328,0,0,1,60.7,9.26a5.955,5.955,0,0,1,4.268,1.552,5.662,5.662,0,0,1,1.465,2.637l-2.862.684a2.957,2.957,0,0,0-3.017-2.4,3.256,3.256,0,0,0-2.583,1.143,5.6,5.6,0,0,0-.991,3.7,6,6,0,0,0,.976,3.867,3.17,3.17,0,0,0,2.539,1.153,2.9,2.9,0,0,0,1.983-.733A4.259,4.259,0,0,0,63.668,18.557Z" transform="translate(-11.959 -9.26)"/><path class="cls-2" d="M68.932,23.82V9.5h2.744V23.82Z" transform="translate(-11.959 -9.26)"/><path class="cls-2" d="M73.854,18.488a5.609,5.609,0,0,1,.673-2.646,4.627,4.627,0,0,1,1.91-1.953,5.654,5.654,0,0,1,2.758-.674,5.183,5.183,0,0,1,3.858,1.528,5.284,5.284,0,0,1,1.5,3.862,5.345,5.345,0,0,1-1.519,3.9,5.132,5.132,0,0,1-3.823,1.548,6.02,6.02,0,0,1-2.72-.645,4.425,4.425,0,0,1-1.968-1.889A6.3,6.3,0,0,1,73.854,18.488Zm2.812.147A3.438,3.438,0,0,0,77.4,21a2.4,2.4,0,0,0,3.609,0,3.484,3.484,0,0,0,.727-2.383,3.422,3.422,0,0,0-.727-2.344,2.4,2.4,0,0,0-3.609,0A3.439,3.439,0,0,0,76.666,18.635Z" transform="translate(-11.959 -9.26)"/><path class="cls-2" d="M93.531,23.82V22.268a4,4,0,0,1-1.489,1.308,4.164,4.164,0,0,1-1.948.479,3.818,3.818,0,0,1-1.875-.459,2.711,2.711,0,0,1-1.2-1.289,5.744,5.744,0,0,1-.372-2.295V13.449h2.745v4.766a13.236,13.236,0,0,0,.151,2.681,1.464,1.464,0,0,0,.552.781,1.7,1.7,0,0,0,1.015.288,2.161,2.161,0,0,0,1.26-.386,1.964,1.964,0,0,0,.762-.957,11.1,11.1,0,0,0,.2-2.8V13.449H96.08V23.82Z" transform="translate(-11.959 -9.26)"/><path class="cls-2" d="M108.434,23.82h-2.549V22.3a4.123,4.123,0,0,1-1.5,1.323,3.842,3.842,0,0,1-1.743.435,3.952,3.952,0,0,1-3.062-1.441A5.857,5.857,0,0,1,98.307,18.6a5.791,5.791,0,0,1,1.24-4.009,4.042,4.042,0,0,1,3.135-1.372,3.88,3.88,0,0,1,3.007,1.445V9.5h2.745Zm-7.325-5.41a4.747,4.747,0,0,0,.459,2.4,2.075,2.075,0,0,0,1.856,1.075,2.021,2.021,0,0,0,1.611-.806,3.717,3.717,0,0,0,.664-2.407,4.072,4.072,0,0,0-.644-2.573,2.117,2.117,0,0,0-3.286-.01A3.5,3.5,0,0,0,101.109,18.41Z" transform="translate(-11.959 -9.26)"/><path class="cls-2" d="M116.715,23.82V9.5h4.639a16.759,16.759,0,0,1,3.437.215,3.755,3.755,0,0,1,2.061,1.4,4.448,4.448,0,0,1,.83,2.788,4.672,4.672,0,0,1-.479,2.217,3.922,3.922,0,0,1-1.216,1.411,4.187,4.187,0,0,1-1.5.679,16.472,16.472,0,0,1-3,.205h-1.885v5.4Zm2.89-11.894v4.062h1.583a7.509,7.509,0,0,0,2.285-.224,1.9,1.9,0,0,0,.9-.7,1.93,1.93,0,0,0,.327-1.114,1.851,1.851,0,0,0-.459-1.289,2,2,0,0,0-1.162-.635,13.944,13.944,0,0,0-2.08-.1Z" transform="translate(-11.959 -9.26)"/><path class="cls-2" d="M130.035,23.82V9.5h2.744V23.82Z" transform="translate(-11.959 -9.26)"/><path class="cls-2" d="M137.643,16.613l-2.491-.449a3.872,3.872,0,0,1,1.446-2.226,5.285,5.285,0,0,1,3.047-.723,6.561,6.561,0,0,1,2.734.434,2.734,2.734,0,0,1,1.265,1.1,5.663,5.663,0,0,1,.366,2.456l-.03,3.2a11.116,11.116,0,0,0,.132,2.017,5.944,5.944,0,0,0,.493,1.391h-2.714q-.108-.273-.264-.81c-.045-.163-.078-.271-.1-.322a4.933,4.933,0,0,1-1.5,1.025,4.318,4.318,0,0,1-1.709.342,3.536,3.536,0,0,1-2.524-.869,2.892,2.892,0,0,1-.923-2.2,2.948,2.948,0,0,1,.42-1.567,2.742,2.742,0,0,1,1.177-1.055,9.187,9.187,0,0,1,2.182-.639,15.046,15.046,0,0,0,2.666-.674v-.274a1.423,1.423,0,0,0-.39-1.128,2.345,2.345,0,0,0-1.475-.337,1.954,1.954,0,0,0-1.142.289A2,2,0,0,0,137.643,16.613Zm3.671,2.227q-.526.176-1.669.42a5.061,5.061,0,0,0-1.5.478,1.145,1.145,0,0,0-.537.967,1.344,1.344,0,0,0,.43,1,1.5,1.5,0,0,0,1.094.42,2.381,2.381,0,0,0,1.416-.488,1.716,1.716,0,0,0,.654-.908,5.413,5.413,0,0,0,.107-1.338Z" transform="translate(-11.959 -9.26)"/><path class="cls-2" d="M151.471,13.449v2.188H149.6v4.179a10.6,10.6,0,0,0,.053,1.48.605.605,0,0,0,.245.347.78.78,0,0,0,.463.136,3.57,3.57,0,0,0,1.1-.263l.235,2.129a5.472,5.472,0,0,1-2.169.41,3.442,3.442,0,0,1-1.338-.249,1.954,1.954,0,0,1-.874-.645,2.544,2.544,0,0,1-.385-1.069,13.252,13.252,0,0,1-.088-1.934V15.637h-1.26V13.449h1.26v-2.06l2.754-1.6v3.662Z" transform="translate(-11.959 -9.26)"/><path class="cls-2" d="M152.174,13.449H153.7v-.781a5.2,5.2,0,0,1,.278-1.953A2.2,2.2,0,0,1,155,9.665a3.94,3.94,0,0,1,1.89-.4,7.653,7.653,0,0,1,2.3.351l-.371,1.914a5.44,5.44,0,0,0-1.26-.156,1.125,1.125,0,0,0-.854.278,1.611,1.611,0,0,0-.259,1.07v.732h2.051v2.158h-2.051V23.82H153.7V15.607h-1.524Z" transform="translate(-11.959 -9.26)"/><path class="cls-2" d="M159.4,18.488a5.6,5.6,0,0,1,.674-2.646,4.624,4.624,0,0,1,1.909-1.953,5.656,5.656,0,0,1,2.759-.674,5.181,5.181,0,0,1,3.857,1.528,5.28,5.28,0,0,1,1.5,3.862,5.341,5.341,0,0,1-1.519,3.9,5.132,5.132,0,0,1-3.823,1.548,6.023,6.023,0,0,1-2.72-.645,4.422,4.422,0,0,1-1.967-1.889A6.291,6.291,0,0,1,159.4,18.488Zm2.812.147A3.438,3.438,0,0,0,162.946,21a2.394,2.394,0,0,0,3.608,0,3.479,3.479,0,0,0,.728-2.383,3.417,3.417,0,0,0-.728-2.344,2.394,2.394,0,0,0-3.608,0A3.439,3.439,0,0,0,162.213,18.635Z" transform="translate(-11.959 -9.26)"/><path class="cls-2" d="M174.879,23.82h-2.744V13.449h2.549v1.475a4.449,4.449,0,0,1,1.177-1.377,2.159,2.159,0,0,1,1.186-.332,3.492,3.492,0,0,1,1.807.517L178,16.125a2.4,2.4,0,0,0-1.289-.449,1.519,1.519,0,0,0-.976.317,2.17,2.17,0,0,0-.63,1.148,16.282,16.282,0,0,0-.23,3.476Z" transform="translate(-11.959 -9.26)"/><path class="cls-2" d="M179.831,13.449h2.529v1.416a4.07,4.07,0,0,1,3.232-1.65,3.487,3.487,0,0,1,1.729.41,3.156,3.156,0,0,1,1.2,1.24A4.786,4.786,0,0,1,190,13.625a3.62,3.62,0,0,1,1.689-.41,3.758,3.758,0,0,1,1.934.464,2.838,2.838,0,0,1,1.181,1.362,5.9,5.9,0,0,1,.283,2.148V23.82H192.34V17.893a4.413,4.413,0,0,0-.283-1.993,1.3,1.3,0,0,0-1.172-.586,1.875,1.875,0,0,0-1.084.352,1.943,1.943,0,0,0-.732,1.03,7.4,7.4,0,0,0-.225,2.144v4.98H186.1V18.137a7.926,7.926,0,0,0-.146-1.953,1.254,1.254,0,0,0-.454-.655,1.441,1.441,0,0,0-.835-.215,2.009,2.009,0,0,0-1.143.342,1.877,1.877,0,0,0-.728.987,7.346,7.346,0,0,0-.219,2.138V23.82h-2.744Z" transform="translate(-11.959 -9.26)"/><path class="cls-2" d="M212.555,18.557l2.8.888a6.292,6.292,0,0,1-2.144,3.482,6.746,6.746,0,0,1-8.491-.811,7.458,7.458,0,0,1-1.836-5.327,7.825,7.825,0,0,1,1.846-5.552,6.33,6.33,0,0,1,4.853-1.977,5.957,5.957,0,0,1,4.268,1.552,5.653,5.653,0,0,1,1.465,2.637l-2.861.684a2.959,2.959,0,0,0-3.018-2.4,3.256,3.256,0,0,0-2.583,1.143,5.6,5.6,0,0,0-.991,3.7,6,6,0,0,0,.976,3.867,3.17,3.17,0,0,0,2.539,1.153,2.894,2.894,0,0,0,1.983-.733A4.259,4.259,0,0,0,212.555,18.557Z" transform="translate(-11.959 -9.26)"/><path class="cls-2" d="M217.184,18.488a5.61,5.61,0,0,1,.674-2.646,4.624,4.624,0,0,1,1.909-1.953,5.656,5.656,0,0,1,2.759-.674,5.181,5.181,0,0,1,3.857,1.528,5.28,5.28,0,0,1,1.5,3.862,5.344,5.344,0,0,1-1.518,3.9,5.134,5.134,0,0,1-3.824,1.548,6.016,6.016,0,0,1-2.719-.645,4.42,4.42,0,0,1-1.968-1.889A6.3,6.3,0,0,1,217.184,18.488Zm2.813.147A3.438,3.438,0,0,0,220.729,21a2.394,2.394,0,0,0,3.608,0,3.479,3.479,0,0,0,.728-2.383,3.417,3.417,0,0,0-.728-2.344,2.394,2.394,0,0,0-3.608,0A3.439,3.439,0,0,0,220,18.635Z" transform="translate(-11.959 -9.26)"/><path class="cls-2" d="M239.079,16.516,236.374,17a1.963,1.963,0,0,0-.621-1.221,1.873,1.873,0,0,0-1.254-.41,2.051,2.051,0,0,0-1.636.708,3.628,3.628,0,0,0-.611,2.368,4.193,4.193,0,0,0,.621,2.608,2.037,2.037,0,0,0,1.665.761,1.851,1.851,0,0,0,1.279-.444,2.675,2.675,0,0,0,.7-1.528l2.695.459a4.781,4.781,0,0,1-1.611,2.8,4.983,4.983,0,0,1-3.193.948,4.747,4.747,0,0,1-3.628-1.436,5.564,5.564,0,0,1-1.353-3.974,5.575,5.575,0,0,1,1.358-4,4.816,4.816,0,0,1,3.671-1.431,5.007,5.007,0,0,1,3.013.815A4.524,4.524,0,0,1,239.079,16.516Z" transform="translate(-11.959 -9.26)"/><path class="cls-2" d="M241.061,23.82V9.5h2.744v7.6l3.213-3.653H250.4l-3.545,3.789,3.8,6.582h-2.959l-2.608-4.658L243.805,20.5v3.32Z" transform="translate(-11.959 -9.26)"/><path class="cls-2" d="M252.2,13.449h2.558v1.524a3.82,3.82,0,0,1,1.348-1.27A3.717,3.717,0,0,1,258,13.215a3.954,3.954,0,0,1,3.066,1.416,5.73,5.73,0,0,1,1.26,3.945,5.9,5.9,0,0,1-1.27,4.038,3.957,3.957,0,0,1-3.076,1.441,3.51,3.51,0,0,1-1.558-.342,5.243,5.243,0,0,1-1.469-1.172v5.225H252.2Zm2.714,5.01a4,4,0,0,0,.694,2.583,2.119,2.119,0,0,0,1.689.835,1.984,1.984,0,0,0,1.592-.767,3.947,3.947,0,0,0,.635-2.514,3.75,3.75,0,0,0-.654-2.422,2.024,2.024,0,0,0-1.622-.791,2.1,2.1,0,0,0-1.669.776A3.455,3.455,0,0,0,254.918,18.459Z" transform="translate(-11.959 -9.26)"/><path class="cls-2" d="M264.5,12.043V9.5h2.744v2.539Zm0,11.777V13.449h2.744V23.82Z" transform="translate(-11.959 -9.26)"/><path class="cls-2" d="M274.811,13.449v2.188h-1.875v4.179a10.344,10.344,0,0,0,.054,1.48.6.6,0,0,0,.244.347.781.781,0,0,0,.464.136,3.56,3.56,0,0,0,1.1-.263l.235,2.129a5.464,5.464,0,0,1-2.168.41,3.438,3.438,0,0,1-1.338-.249,1.943,1.943,0,0,1-.874-.645,2.531,2.531,0,0,1-.386-1.069,13.252,13.252,0,0,1-.088-1.934V15.637h-1.26V13.449h1.26v-2.06l2.754-1.6v3.662Z" transform="translate(-11.959 -9.26)"/></svg>
